<svg xmlns="http://www.w3.org/2000/svg" viewBox="0 0 24 24" fill="white">
  <path d="M12 2C6.477 2 2 6.483 2 12.009c0 5.523 4.477 9.991 10 9.991s10-4.468 10-9.991C22 6.483 17.523 2 12 2zm0 1.8c4.048 0 7.2 3.152 7.2 7.209 0 4.048-3.152 7.191-7.2 7.191A7.197 7.197 0 0 1 4.8 11.999C4.8 7.952 7.952 3.8 12 3.8zm-.001 3.286c-.425 0-.77.345-.77.77v2.845l-2.005-2.005a.77.77 0 0 0-1.088 1.088l2.014 2.014H7.308a.77.77 0 1 0 0 1.54h2.842L8.123 16.55a.77.77 0 0 0 1.088 1.088l2.014-2.014v2.842a.77.77 0 1 0 1.54 0v-2.842l2.014 2.014a.77.77 0 0 0 1.088-1.088l-2.014-2.014h2.842a.77.77 0 1 0 0-1.54h-2.842l2.014-2.014a.77.77 0 0 0-1.088-1.088l-2.014 2.014V7.855a.77.77 0 0 0-.77-.77z"></path>
</svg>
